<?xml version="1.0" encoding="utf-8"?>
<!-- Generator: Adobe Illustrator 27.2.0, SVG Export Plug-In . SVG Version: 6.00 Build 0)  -->
<svg version="1.1" id="Layer_1" xmlns="http://www.w3.org/2000/svg" xmlns:xlink="http://www.w3.org/1999/xlink" x="0px" y="0px"
	 viewBox="0 0 1202 432" style="enable-background:new 0 0 1202 432;" xml:space="preserve">
<style type="text/css">
	.st0{fill:#EBEBFF;stroke:#000000;stroke-miterlimit:10;}
	.st1{fill:#FFE6E6;stroke:#000000;stroke-miterlimit:10;}
	.st2{fill:#E9FFE9;stroke:#000000;stroke-miterlimit:10;}
	.st3{fill:none;}
	.st4{font-family:'MyriadPro-Regular';}
	.st5{font-size:24px;}
</style>
<path class="st0" d="M1158.54895,36.36095c-113.12329,65.31177-176.41223,183.79114-176.52625,305.65024l0.38654-0.32004
	c0-130.62354-70.96167-244.6731-176.43774-305.70139l-0.03009,0.34969c113.12335,65.31178,247.3739,60.88195,352.96411,0.05113
	L1158.54895,36.36095z"/>
<path class="st1" d="M385.40924,318.69116c0-130.62354-70.96164-244.6731-176.43773-305.70139l-0.42253,0.37118
	C95.42567,78.67272,32.13669,197.15208,32.02268,319.0112l-0.08126,0.32828
	c113.12331,65.31177,247.37395,60.88196,352.96405,0.05112L385.40924,318.69116z"/>
<polygon class="st2" points="621.5,36.5 797.5,342.5 445.5,342.5 "/>
<rect x="27.35231" y="381.20642" class="st3" width="359.74377" height="51.24555"/>
<text transform="matrix(1 0 0 1 173.86523 398.24609)" class="st4 st5">Elliptic</text>
<rect x="441.35233" y="381.20642" class="st3" width="359.74377" height="51.24555"/>
<text transform="matrix(1 0 0 1 572.46924 398.24609)" class="st4 st5">Euclidean</text>
<rect x="806.35229" y="381.20642" class="st3" width="359.74377" height="51.24555"/>
<text transform="matrix(1 0 0 1 931.55322 398.24609)" class="st4 st5">Hyperbolic</text>
</svg>
