<?xml version="1.0" encoding="UTF-8"?>
<svg xmlns="http://www.w3.org/2000/svg" width="611.275574" height="273.889832" version="1.1" viewBox="0 0 611.275574 273.889832">
  <!-- Generator: Adobe Illustrator 29.8.4, SVG Export Plug-In . SVG Version: 2.1.1 Build 6)  -->
  <g id="Layer_1">
    <line x1="368.000075" y1="137.889801" x2="15.999989" y2="137.889886" style="fill: none; stroke: #828282; stroke-dasharray: 12 12 36 12; stroke-linecap: round; stroke-linejoin: round; stroke-width: 4px;"/>
    <line x1="528.000114" y1="137.889762" x2="432.00009" y2="137.889785" style="fill: none; stroke: #828282; stroke-dasharray: 12 12 36 12; stroke-linecap: round; stroke-linejoin: round; stroke-width: 4px;"/>
    <g>
      <line x1="152" y1="177.889832" x2="276.060547" y2="177.889832" style="fill: none; stroke: #828282; stroke-linecap: round; stroke-linejoin: round; stroke-width: 4px;"/>
      <polygon points="270.443359 185.296082 273.589844 177.889832 270.443359 170.483582 288 177.889832 270.443359 185.296082" style="fill: #828282;"/>
    </g>
  </g>
  <g id="Layer_5">
    <rect x="8" y="9.889832" width="592" height="256" style="fill: none;"/>
    <text transform="translate(545.304749 31.214142)" style="fill: #231f20; font-family: SegoeUI, &apos;Segoe UI&apos;; font-size: 18px;"><tspan x="0" y="0">Toe</tspan></text>
    <text transform="translate(382.017578 255.213955)" style="fill: #231f20; font-family: SegoeUI, &apos;Segoe UI&apos;; font-size: 18px;"><tspan x="0" y="0">Heel</tspan></text>
    <text transform="translate(455.645538 31.214142)" style="fill: #231f20; font-family: SegoeUI, &apos;Segoe UI&apos;; font-size: 18px;"><tspan x="0" y="0">Instep</tspan></text>
    <text transform="translate(225.757294 87.214035)" style="fill: #231f20; font-family: SegoeUI, &apos;Segoe UI&apos;; font-size: 18px;"><tspan x="0" y="0">Leg</tspan></text>
    <text transform="translate(157.912033 199.213963)" style="fill: #231f20; font-family: SegoeUI, &apos;Segoe UI&apos;; font-size: 18px;"><tspan x="0" y="0">Knit Direction</tspan></text>
    <text transform="translate(33.282153 87.21405)" style="fill: #231f20; font-family: SegoeUI, &apos;Segoe UI&apos;; font-size: 18px;"><tspan x="0" y="0">Ribbing</tspan></text>
    <text transform="translate(463.059113 255.213948)" style="fill: #231f20; font-family: SegoeUI, &apos;Segoe UI&apos;; font-size: 18px;"><tspan x="0" y="0">Sole</tspan></text>
  </g>
  <g id="Layer_2">
    <g>
      <polyline points="432.000067 49.889778 432.00009 137.889785 400.000091 169.889796 368.000075 137.889801 368.000051 49.889794" style="fill: none; stroke: #ee1c4e; stroke-linecap: round; stroke-linejoin: round; stroke-width: 4px;"/>
      <polyline points="592.000106 49.889739 560.000106 81.88975 528.00009 49.889755" style="fill: none; stroke: #ee1c4e; stroke-linecap: round; stroke-linejoin: round; stroke-width: 4px;"/>
      <polyline points="528.000114 137.889762 560.000113 105.889752 592.000129 137.889746" style="fill: none; stroke: #ee1c4e; stroke-linecap: round; stroke-linejoin: round; stroke-width: 4px;"/>
      <path d="M528.000137,225.889769" style="fill: none; stroke: #ee1c4e; stroke-linecap: round; stroke-linejoin: round; stroke-width: 4px;"/>
      <polyline points="368.000098 225.889808 400.000098 193.889798 432.000114 225.889792" style="fill: none; stroke: #ee1c4e; stroke-linecap: round; stroke-linejoin: round; stroke-width: 4px;"/>
    </g>
  </g>
  <g id="Layer_4">
    <g>
      <line x1="592.000129" y1="137.889746" x2="592.000106" y2="49.889739" style="fill: none; stroke: #61bb46; stroke-linecap: round; stroke-linejoin: round; stroke-width: 4px;"/>
      <line x1="15.999957" y1="17.889877" x2="16.000022" y2="257.889896" style="fill: none; stroke: #61bb46; stroke-linecap: round; stroke-linejoin: round; stroke-width: 4px;"/>
      <line x1="111.999977" y1="17.889859" x2="112.000041" y2="257.889878" style="fill: none; stroke: #61bb46; stroke-linecap: round; stroke-linejoin: round; stroke-width: 4px;"/>
      <line x1="528.000137" y1="225.889769" x2="528.000114" y2="137.889762" style="fill: none; stroke: #61bb46; stroke-linecap: round; stroke-linejoin: round; stroke-width: 4px;"/>
    </g>
  </g>
  <g id="Layer_3">
    <g>
      <polyline points="368.000051 49.889794 336.000043 49.889801 111.999977 17.889859 15.999957 17.889877" style="fill: none; stroke: #3d51a3; stroke-linecap: round; stroke-linejoin: round; stroke-width: 4px;"/>
      <line x1="528.00009" y1="49.889755" x2="432.000067" y2="49.889778" style="fill: none; stroke: #3d51a3; stroke-linecap: round; stroke-linejoin: round; stroke-width: 4px;"/>
      <line x1="432.000114" y1="225.889792" x2="528.000137" y2="225.889769" style="fill: none; stroke: #3d51a3; stroke-linecap: round; stroke-linejoin: round; stroke-width: 4px;"/>
      <polyline points="16.000022 257.889896 112.000041 257.889878 336.000091 225.889816 368.000098 225.889808" style="fill: none; stroke: #3d51a3; stroke-linecap: round; stroke-linejoin: round; stroke-width: 4px;"/>
    </g>
  </g>
</svg>