<?xml version="1.0" encoding="utf-8"?>
<!-- Generator: Adobe Illustrator 27.5.0, SVG Export Plug-In . SVG Version: 6.00 Build 0)  -->
<svg version="1.1"
	 id="svg2" xmlns:svg="http://www.w3.org/2000/svg" xmlns:inkscape="http://www.inkscape.org/namespaces/inkscape" xmlns:sodipodi="http://sodipodi.sourceforge.net/DTD/sodipodi-0.dtd" xmlns:dc="http://purl.org/dc/elements/1.1/" xmlns:rdf="http://www.w3.org/1999/02/22-rdf-syntax-ns#" xmlns:cc="http://creativecommons.org/ns#"
	 xmlns="http://www.w3.org/2000/svg" xmlns:xlink="http://www.w3.org/1999/xlink" x="0px" y="0px" viewBox="0 0 179.3 158.3"
	 style="enable-background:new 0 0 179.3 158.3;" xml:space="preserve">
<style type="text/css">
	.st0{fill:#626262;stroke:#626262;stroke-width:2;stroke-miterlimit:10;}
	.st1{fill:#FFFFFF;}
</style>
<path d="M77.1,1.1c-1.9,0.2-3.6,1.3-4.5,3L0.8,128.4c-1.1,1.8-1.1,4.1,0,5.9c4,6.9,8,13.8,12,20.7c1.1,1.8,3,3,5.1,3h143.5
	c2.1,0,4.1-1.1,5.1-3c4-6.9,8-13.8,12-20.7c1.1-1.8,1.1-4.1,0-5.9L106.7,4.1c-1.1-1.8-3-3-5.1-3H77.7h-0.1
	C77.4,1.1,77.3,1.1,77.1,1.1z"/>
<path class="st0" d="M89.6,152.4c-0.1,0-0.2-0.1-0.3-0.2L77.6,132L66,152.2c0,0,0,0,0,0.1c0,0-0.1,0.1-0.1,0.1c0,0-0.1,0-0.1,0
	c0,0-0.1,0-0.1,0c0,0-0.1,0-0.1-0.1c0,0,0,0-0.1-0.1L53.7,132l-11.7,20.2c0,0.1-0.1,0.1-0.1,0.2c-0.1,0.1-0.3,0-0.4-0.1l-11.9-20.6
	H5.9c-0.2,0-0.3-0.1-0.3-0.3s0.1-0.3,0.3-0.3h23.4l-11.7-20.2c-0.1-0.1,0-0.3,0.1-0.4c0.1,0,0.1,0,0.2,0c0,0,0,0,0,0h23.4L29.6,90.1
	c0,0,0,0,0-0.1c0,0,0-0.1,0-0.1h0c0,0,0,0,0,0c0,0,0-0.1,0-0.1c0,0,0.1-0.1,0.1-0.1c0,0,0.1,0,0.1,0c0,0,0.1,0,0.1,0h23.4L41.5,69.3
	c0,0,0-0.1,0-0.1c0,0,0-0.1,0-0.1c0,0,0-0.1,0-0.1c0,0,0.1-0.1,0.1-0.1c0,0,0.1,0,0.1,0c0,0,0.1,0,0.1,0h23.4L53.5,48.6
	c0,0,0-0.1,0-0.1c0,0,0-0.1,0-0.1c0,0,0-0.1,0-0.1c0,0,0.1-0.1,0.1-0.1c0,0,0.1,0,0.1,0c0,0,0.1,0,0.1,0h23.4L65.4,27.9
	c0-0.1,0-0.1,0-0.2c0,0,0,0,0,0c0-0.2,0.1-0.3,0.3-0.3h23.8l11.9-20.6c0.1-0.1,0.3-0.2,0.4-0.1c0.1,0.1,0.2,0.3,0.1,0.4L90.2,27.4
	h23.4c0,0,0,0,0,0c0.1,0,0.1,0,0.2,0c0.1,0.1,0.2,0.3,0.1,0.4l-11.7,20.3h23.4c0,0,0.1,0,0.1,0c0,0,0,0,0,0s0,0,0,0c0,0,0.1,0,0.1,0
	c0,0,0.1,0.1,0.1,0.1c0,0,0,0.1,0,0.1c0,0,0,0.1,0,0.1c0,0,0,0.1,0,0.1l-11.7,20.2h23.4c0,0,0.1,0,0.1,0l0,0l0,0c0,0,0.1,0,0.1,0
	c0,0,0.1,0.1,0.1,0.1c0,0,0,0.1,0,0.1c0,0,0,0.1,0,0.1c0,0,0,0.1,0,0.1L126,89.6h23.4c0,0,0.1,0,0.1,0c0,0,0.1,0,0.1,0l0,0
	c0,0,0,0,0,0c0,0,0.1,0.1,0.1,0.1c0,0,0,0.1,0,0.1c0,0,0,0.1,0,0.1c0,0,0,0.1,0,0.1L138,110.3h23.4c0,0,0.1,0,0.1,0
	c0,0,0.1,0,0.1,0.1c0,0,0.1,0.1,0.1,0.1c0,0,0,0.1,0,0.1c0,0,0,0.1,0,0.1c0,0,0,0.1,0,0.1l-11.9,20.6l11.9,20.6
	c0.1,0.1,0,0.3-0.1,0.4c-0.1,0.1-0.3,0-0.4-0.1L149.4,132l-11.7,20.3c0,0,0,0-0.1,0.1c0,0-0.1,0-0.1,0.1c0,0-0.1,0-0.1,0l0,0l0,0
	c0,0-0.1,0-0.1,0c0,0-0.1,0-0.1-0.1c0,0,0,0-0.1-0.1L125.5,132l-11.7,20.3c0,0,0,0-0.1,0.1v0l0,0c0,0-0.1,0-0.1,0.1c0,0-0.1,0-0.1,0
	l0,0l0,0c0,0-0.1,0-0.1,0c0,0-0.1,0-0.1-0.1l0,0v0c0,0,0,0-0.1-0.1L101.6,132l-11.7,20.2C89.8,152.3,89.7,152.4,89.6,152.4
	C89.6,152.4,89.6,152.4,89.6,152.4z M78,131.4l11.6,20.1l11.6-20.1l-11.6-20.1L78,131.4z M101.9,131.4l11.6,20.1l11.6-20.1
	l-11.6-20.1L101.9,131.4z M125.9,131.4l11.6,20.1l11.6-20.1l-11.6-20.1L125.9,131.4z M54,131.2l11.7,20.2l11.6-20.1l-11.8-20.4H42.3
	L54,131.2C54,131.2,54,131.2,54,131.2C54,131.2,54,131.2,54,131.2z M30.3,131.6l11.4,19.8l11.4-19.8H30.3z M30,131h23.2l-11.6-20.1
	H18.4L30,131z M89.9,110.6l11.6,20.2l11.7-20.2c0-0.1,0-0.1,0.1-0.1L125,90.2h-23.4c0,0,0,0,0,0c-0.1,0-0.1,0-0.2,0
	c-0.1-0.1-0.2-0.3-0.1-0.4L113,69.5H89.6c0,0,0,0,0,0H66.2l11.7,20.3c0,0,0,0.1,0,0.1c0,0,0,0.1,0,0.1c0,0,0,0.1,0,0.1
	c0,0-0.1,0.1-0.1,0.1c0,0-0.1,0-0.1,0h0c0,0,0,0,0,0c0,0-0.1,0-0.1,0H54.3l11.7,20.2c0,0,0.1,0.1,0.1,0.1l11.7,20.2l11.6-20.2
	c0-0.1,0.1-0.2,0.1-0.2c0.1,0,0.1,0,0.2,0c0.1,0,0.1,0,0.2,0C89.9,110.4,89.9,110.5,89.9,110.6z M113.9,110.6l11.6,20.1l11.7-20.2
	c0,0,0,0,0,0l0,0v0c0,0,0,0,0,0l11.7-20.2h-23.2L113.9,110.6z M138,110.9l11.4,19.8l11.4-19.8H138z M41.9,110.3h23.2L53.5,90.2H30.3
	L41.9,110.3z M102.1,89.6h23.2l11.6-20.1h-23.2L102.1,89.6z M53.9,89.6h23.2L65.5,69.5H42.3L53.9,89.6z M90.2,68.9h23.2L125,48.8
	h-23.2L90.2,68.9z M65.9,68.9h23.6l11.6-20.1H77.7c0,0,0,0,0,0c0,0,0,0,0,0H54.3L65.9,68.9z M78.2,48.2h23.2L113,28.1H89.8
	L78.2,48.2z M66.2,28.1l11.5,19.8l11.4-19.8H66.2z"/>
<path class="st1" d="M17.8,153.9c-0.2,0-0.3,0-0.5-0.1c-0.2,0-0.3-0.1-0.4-0.2c-0.1-0.1-0.3-0.2-0.4-0.3l0,0c0,0,0,0,0,0
	c-0.1-0.1-0.2-0.2-0.3-0.4c0,0,0,0,0,0l-12-20.7c-0.4-0.8-0.3-1.7,0.4-2.3L76.1,6.1c0,0,0,0,0,0c0.1-0.1,0.2-0.3,0.3-0.4
	c0.1-0.1,0.2-0.2,0.4-0.3c0.1-0.1,0.3-0.1,0.4-0.2c0.2,0,0.3-0.1,0.5-0.1c0,0,0,0,0,0h23.8c0.1,0,0.2,0,0.2,0c0.3,0,0.5,0.1,0.7,0.2
	c0.2,0.1,0.4,0.3,0.6,0.5c0,0.1,0.1,0.1,0.1,0.2L175,130.5c0,0,0,0,0,0c0.1,0.1,0.1,0.3,0.2,0.4c0,0.2,0.1,0.3,0.1,0.5
	c0,0.2,0,0.3-0.1,0.5c0,0.2-0.1,0.3-0.2,0.4c0,0,0,0,0,0L163,153c-0.3,0.6-1,0.9-1.6,0.9c0,0,0,0,0,0H17.8
	C17.8,153.9,17.8,153.9,17.8,153.9z M21,150.3h139.4l9.9-17.1H53.7c-0.2,0-0.4,0-0.5-0.1c-0.2-0.1-0.4-0.2-0.6-0.3
	c-0.2-0.2-0.4-0.3-0.5-0.6c-0.1-0.2-0.2-0.5-0.2-0.7c0-0.2,0-0.4,0.1-0.6c0-0.2,0.1-0.3,0.2-0.5l11.9-20.7c0-0.1,0.1-0.2,0.1-0.2
	l23.3-40.4l-9.8-17L21,150.3z M8,131.5l9.8,17L76.1,47.6c0.1-0.1,0.2-0.3,0.3-0.4c0.2-0.2,0.3-0.3,0.5-0.4c0.2-0.1,0.5-0.2,0.8-0.2
	c0.2,0,0.5,0.1,0.7,0.2c0.2,0.1,0.4,0.2,0.6,0.4c0.1,0.1,0.2,0.3,0.3,0.4l35.3,61.2h19.8L77.7,10.6L8,131.5z M56.9,129.6h113.4
	L100.5,8.8H80.9l58.2,100.8c0.1,0.1,0.2,0.3,0.2,0.5c0.1,0.2,0.1,0.4,0.1,0.7c0,0.3-0.1,0.5-0.2,0.7c-0.1,0.2-0.3,0.4-0.5,0.6
	c-0.2,0.1-0.4,0.2-0.6,0.3c-0.2,0-0.3,0.1-0.5,0.1h-23.3c-0.4,0.1-0.8,0.1-1.2,0H66.8L56.9,129.6z M68.9,108.8h41.5l-20.8-36
	L68.9,108.8z"/>
</svg>
