<?xml version="1.0" encoding="utf-8"?>
<!-- Generator: Adobe Illustrator 27.2.0, SVG Export Plug-In . SVG Version: 6.00 Build 0)  -->
<svg version="1.1"
	 id="svg2" xmlns:cc="http://creativecommons.org/ns#" xmlns:dc="http://purl.org/dc/elements/1.1/" xmlns:rdf="http://www.w3.org/1999/02/22-rdf-syntax-ns#" xmlns:inkscape="http://www.inkscape.org/namespaces/inkscape" xmlns:sodipodi="http://sodipodi.sourceforge.net/DTD/sodipodi-0.dtd" xmlns:svg="http://www.w3.org/2000/svg"
	 xmlns="http://www.w3.org/2000/svg" xmlns:xlink="http://www.w3.org/1999/xlink" x="0px" y="0px" viewBox="0 0 179.3 158.3"
	 style="enable-background:new 0 0 179.3 158.3;" xml:space="preserve">
<style type="text/css">
	.st0{fill:none;stroke:#626262;stroke-width:2.4257;stroke-linecap:round;stroke-miterlimit:2.5193;}
	.st1{fill:none;stroke:#FFFFFF;stroke-width:3.6387;stroke-linecap:round;stroke-miterlimit:10;}
</style>
<sodipodi:namedview  bordercolor="#666666" borderopacity="1.0" id="base" inkscape:current-layer="layer1" inkscape:cx="109.90626" inkscape:cy="85.130727" inkscape:document-units="px" inkscape:pageopacity="0.0" inkscape:pageshadow="2" inkscape:window-height="1017" inkscape:window-maximized="1" inkscape:window-width="1920" inkscape:window-x="-8" inkscape:window-y="-8" inkscape:zoom="3.959798" pagecolor="#ffffff" showgrid="false">
	</sodipodi:namedview>
<g id="layer3" inkscape:groupmode="layer" inkscape:label="Background">
</g>
<g id="layer2" inkscape:groupmode="layer" inkscape:label="Layer">
	<path id="use3819" inkscape:connector-curvature="0" sodipodi:nodetypes="cccccccsccccccsccc" d="M77.1,1.1c-1.9,0.2-3.6,1.3-4.5,3
		h0L0.8,128.4c-1.1,1.8-1.1,4.1,0,5.9c4,6.9,8,13.8,12,20.7c1.1,1.8,3,3,5.1,3h143.5c2.1,0,4.1-1.1,5.1-3c4-6.9,8-13.8,12-20.7
		c1.1-1.8,1.1-4.1,0-5.9L106.7,4.1c-1.1-1.8-3-3-5.1-3H77.7c0,0-0.1,0-0.1,0c-0.2,0-0.3,0-0.5,0H77.1L77.1,1.1z"/>
</g>
<g id="layer1" inkscape:groupmode="layer" inkscape:label="Layer 1">
	<g id="g2997" transform="matrix(0.25192791,0,0,0.25192791,0.18720511,896.59752)">
		<path id="path2999" inkscape:connector-curvature="0" class="st0" d="M117.6-3202L260-2955.3 M260-2955.3l95-164.5 M212.5-3037.6
			l-47.5,82.2 M212.5-3037.6H22.6 M165-2955.3l-95-164.5 M260-3119.8H70.1 M165-3284.3l189.9,329 M117.6-3202h189.9 M497.4-3366.5
			H212.5 M212.5-3366.5l95,164.5 M307.5-3366.5l-47.5-82.2 M307.5-3366.5l95-164.5 M260-3448.8h189.9 M355-3284.3l95-164.5
			 M544.9-3284.3H165 M497.4-3366.5l-95,164.5 M449.9-2955.3L592.4-3202 M592.4-3202H402.5 M544.9-3119.8h95 M544.9-3119.8l95,164.5
			 M639.9-3119.8l-95,164.5 M449.9-3119.8l95,164.5 M355-2955.3l189.9-329 M449.9-2955.3l-95-164.5"/>
	</g>
	<path id="path3003" inkscape:connector-curvature="0" class="st1" d="M17.8,152.1L77.7,48.5 M17.8,152.1l-12-20.7 M5.9,131.4
		L77.7,7 M17.8,152.1h143.5 M161.4,152.1l12-20.7 M173.4,131.4H53.7 M173.4,131.4L101.6,7 M101.6,7H77.7 M77.7,7l59.8,103.6
		 M77.7,48.5l35.9,62.2 M65.7,110.6h71.8 M89.6,69.2l-35.9,62.2"/>
</g>
</svg>
