<?xml version="1.0" standalone="no"?>
<!DOCTYPE svg PUBLIC "-//W3C//DTD SVG 20010904//EN"
 "http://www.w3.org/TR/2001/REC-SVG-20010904/DTD/svg10.dtd">
<svg version="1.0" xmlns="http://www.w3.org/2000/svg"
 width="716.000000pt" height="716.000000pt" viewBox="0 0 716.000000 716.000000"
 preserveAspectRatio="xMidYMid meet">
<metadata>
Created by potrace 1.14, written by Peter Selinger 2001-2017
</metadata>
<g transform="translate(0.000000,716.000000) scale(0.100000,-0.100000)"
fill="#000000" stroke="none">
<path d="M3025 6681 c-58 -18 -103 -63 -154 -153 -23 -40 -46 -80 -51 -88 -31
-48 -140 -244 -140 -250 0 -5 -3 -10 -7 -12 -5 -1 -17 -20 -28 -40 -62 -114
-150 -263 -157 -266 -4 -2 -8 -8 -8 -13 0 -7 -178 -323 -220 -389 -5 -8 -40
-69 -78 -135 -38 -66 -98 -170 -134 -231 -35 -61 -68 -117 -72 -125 -4 -8 -12
-23 -19 -34 -7 -11 -30 -51 -52 -90 -22 -38 -44 -77 -50 -86 -5 -9 -32 -54
-58 -100 -26 -46 -52 -91 -57 -99 -37 -58 -140 -243 -140 -251 0 -5 -4 -9 -9
-9 -5 0 -11 -8 -14 -17 -6 -19 -57 -111 -85 -153 -9 -14 -22 -34 -27 -45 -16
-28 -84 -147 -95 -165 -5 -8 -39 -67 -75 -130 -36 -63 -70 -122 -75 -130 -5
-8 -21 -35 -35 -60 -14 -25 -41 -72 -60 -105 -20 -33 -41 -71 -48 -85 -6 -14
-14 -27 -18 -30 -3 -3 -21 -33 -40 -66 -19 -34 -50 -88 -69 -120 -19 -33 -39
-68 -45 -79 -43 -78 -113 -198 -140 -240 -17 -27 -36 -61 -43 -75 -6 -14 -16
-32 -22 -40 -22 -34 -90 -151 -90 -155 0 -3 -46 -83 -87 -150 -7 -11 -15 -27
-20 -35 -4 -8 -20 -37 -36 -65 -45 -75 -174 -298 -198 -342 -31 -55 -62 -107
-68 -113 -4 -3 -7 -11 -9 -18 -1 -8 -11 -26 -21 -40 -33 -49 -79 -130 -86
-151 -3 -12 -11 -21 -16 -21 -5 0 -9 -5 -9 -11 0 -6 -10 -25 -22 -42 -13 -18
-21 -32 -20 -32 2 0 -2 -13 -8 -30 -7 -17 -10 -55 -7 -87 5 -51 18 -80 119
-253 62 -108 120 -208 128 -223 8 -15 20 -30 25 -34 6 -4 6 -8 2 -8 -4 0 6
-20 23 -44 16 -25 30 -47 30 -50 0 -3 27 -51 60 -106 33 -55 60 -105 60 -110
0 -6 4 -10 8 -10 4 0 13 -12 20 -27 23 -51 73 -123 86 -123 4 0 16 -8 27 -18
10 -10 35 -24 54 -29 24 -8 910 -11 2927 -11 3220 -1 2961 -7 3037 69 22 23
41 45 41 49 0 4 24 47 53 96 29 49 56 96 60 104 5 8 13 24 20 35 7 11 28 47
47 80 19 33 41 69 47 80 7 11 16 28 19 37 3 10 10 18 15 18 5 0 9 9 9 20 0 11
4 20 8 20 4 0 26 34 47 75 22 41 43 75 47 75 5 0 8 5 8 10 0 6 27 58 61 115
94 161 92 208 -13 387 -76 128 -315 542 -346 598 -14 25 -42 74 -64 109 -21
34 -38 65 -38 67 0 2 -18 33 -40 69 -22 36 -40 70 -40 75 0 6 -5 10 -12 10 -6
0 -8 3 -5 7 4 3 1 13 -6 22 -21 25 -97 158 -97 170 0 6 -3 11 -7 11 -5 0 -13
10 -18 23 -21 44 -60 112 -72 125 -7 7 -13 20 -13 28 0 8 -4 14 -9 14 -5 0
-11 8 -14 18 -6 18 -48 92 -91 160 -14 23 -26 43 -26 46 0 2 -17 33 -38 67
-22 35 -50 84 -64 109 -14 25 -58 101 -97 168 -39 68 -71 128 -71 133 0 5 -4
9 -10 9 -5 0 -10 4 -10 9 0 5 -20 44 -45 85 -25 42 -45 81 -45 86 0 6 -4 10
-10 10 -5 0 -10 5 -10 10 0 6 -16 36 -35 66 -19 30 -35 57 -35 60 0 4 -29 55
-65 115 -36 59 -65 113 -65 119 0 5 -4 10 -10 10 -5 0 -10 4 -10 9 0 8 -182
329 -210 371 -6 8 -13 22 -17 30 -3 8 -25 47 -48 85 -23 39 -88 151 -145 250
-57 99 -122 213 -146 252 -24 40 -44 77 -44 83 0 5 -4 10 -8 10 -4 0 -13 12
-19 28 -13 30 -55 104 -64 112 -3 3 -12 20 -20 38 -8 17 -17 32 -21 32 -5 0
-8 4 -8 9 0 4 -29 57 -64 117 -36 60 -76 129 -89 154 -14 25 -34 61 -46 80
-11 19 -33 57 -48 84 -16 27 -33 56 -38 65 -6 9 -66 114 -135 234 -137 240
-171 287 -234 319 -40 22 -48 22 -564 23 -426 0 -531 -2 -567 -14z"/>
</g>
</svg>
