<svg xmlns="http://www.w3.org/2000/svg" viewBox="0 0 960 340" width="960" height="340">
  <defs>
    <style>
      text { font-family: -apple-system, BlinkMacSystemFont, 'Segoe UI', Helvetica, Arial, sans-serif; }
    </style>
  </defs>

  <!-- Designer icon -->
  <g transform="translate(100, 100)">
    <!-- Head -->
    <circle cx="0" cy="-20" r="35" fill="#2196F3"/>
    <!-- Body -->
    <path d="M-50,70 Q-50,10 0,10 Q50,10 50,70 Z" fill="#2196F3"/>
    <!-- Label -->
    <text x="0" y="110" text-anchor="middle" font-size="24" fill="#555" font-weight="500">Designer</text>
  </g>

  <!-- Green arrow -->
  <g transform="translate(340, 120)">
    <polygon points="-130,-45 60,-45 60,-70 130,0 60,70 60,45 -130,45" fill="#4CAF50"/>
    <text x="0" y="10" text-anchor="middle" font-size="32" fill="white" font-weight="bold">CAD</text>
  </g>

  <!-- CAD shape: rectangle with circle -->
  <g transform="translate(710, 110)">
    <!-- Rectangle body -->
    <rect x="-130" y="-80" width="260" height="180" rx="8" ry="8" fill="#f5f5f5" stroke="#999" stroke-width="2"/>
    <!-- Circle inside -->
    <circle cx="30" cy="10" r="50" fill="none" stroke="#666" stroke-width="2"/>
    <!-- Corner handles -->
    <circle cx="-130" cy="-80" r="7" fill="white" stroke="#999" stroke-width="1.5"/>
    <circle cx="130" cy="-80" r="7" fill="white" stroke="#999" stroke-width="1.5"/>
    <circle cx="-130" cy="100" r="7" fill="white" stroke="#999" stroke-width="1.5"/>
    <circle cx="130" cy="100" r="7" fill="white" stroke="#999" stroke-width="1.5"/>
  </g>

  <!-- Geometry Algorithms trapezoid -->
  <g transform="translate(480, 280)">
    <polygon points="-140,-30 140,-30 170,30 -170,30" fill="#666"/>
    <text x="0" y="10" text-anchor="middle" font-size="20" fill="white" font-weight="bold">Geometry</text>
    <text x="0" y="30" text-anchor="middle" font-size="20" fill="white" font-weight="bold">Algorithms</text>
  </g>
</svg>